<?xml version="1.0" standalone="no"?>
<!DOCTYPE svg PUBLIC "-//W3C//DTD SVG 20010904//EN"
 "http://www.w3.org/TR/2001/REC-SVG-20010904/DTD/svg10.dtd">
<svg version="1.0" xmlns="http://www.w3.org/2000/svg"
 width="1620.000000pt" height="1620.000000pt" viewBox="0 0 1620.000000 1620.000000"
 preserveAspectRatio="xMidYMid meet">
<metadata>
Created by potrace 1.14, written by Peter Selinger 2001-2017
</metadata>
<g transform="translate(0.000000,1620.000000) scale(0.100000,-0.100000)"
fill="#000000" stroke="none">
<path d="M7808 14144 c-2 -1 -40 -5 -86 -8 -87 -7 -141 -13 -182 -21 -13 -2
-42 -7 -65 -10 -22 -4 -58 -11 -80 -17 -22 -5 -49 -12 -60 -14 -57 -11 -75
-16 -159 -40 -50 -15 -103 -33 -118 -40 -15 -8 -29 -14 -30 -13 -16 11 -286
-107 -423 -186 -57 -33 -259 -165 -324 -213 -136 -99 -334 -294 -429 -422 -35
-47 -69 -92 -76 -100 -30 -38 -188 -298 -206 -340 -6 -13 -15 -27 -18 -30 -12
-8 -212 -420 -212 -436 0 -3 -6 -20 -14 -37 -32 -73 -109 -297 -120 -349 -3
-13 -15 -59 -27 -103 -22 -84 -27 -104 -35 -145 -3 -14 -7 -33 -10 -42 -3 -9
-6 -25 -8 -35 -2 -10 -20 -90 -39 -178 -35 -158 -40 -182 -52 -259 -4 -21 -8
-47 -10 -56 -2 -10 -6 -40 -10 -67 -4 -26 -9 -59 -11 -73 -18 -111 -26 -616
-11 -730 15 -120 49 -250 88 -337 39 -88 110 -193 154 -227 56 -45 123 -85
129 -79 3 4 6 1 6 -6 0 -7 5 -9 10 -6 6 3 10 3 10 -2 0 -4 15 -14 33 -21 17
-7 59 -27 92 -44 33 -18 90 -47 127 -66 l66 -34 37 -112 c20 -61 48 -140 61
-176 95 -246 216 -454 344 -590 42 -44 49 -59 28 -61 -7 0 -20 -2 -28 -4 -26
-6 -303 -124 -342 -146 -21 -11 -38 -18 -38 -14 0 3 -10 -1 -22 -9 -17 -11
-42 -14 -98 -10 -90 6 -106 7 -145 5 -16 -1 -37 -1 -45 0 -68 5 -160 -38 -214
-99 -17 -19 -54 -58 -82 -87 -59 -61 -97 -113 -149 -210 -73 -136 -99 -180
-107 -183 -4 -2 -8 -8 -8 -13 0 -10 -29 -56 -186 -294 -51 -77 -104 -164 -119
-193 -16 -33 -36 -57 -51 -62 -60 -23 -140 -65 -152 -79 -16 -20 -57 -108 -65
-142 -7 -27 -19 -35 -127 -80 -30 -13 -57 -25 -60 -28 -3 -4 -14 -8 -25 -9
-11 -2 -22 -7 -25 -11 -3 -4 -36 -22 -75 -41 -38 -19 -71 -38 -73 -42 -2 -5
-10 -8 -18 -8 -8 0 -20 -5 -27 -10 -7 -6 -58 -41 -113 -78 -111 -73 -157 -109
-246 -192 -33 -30 -64 -56 -69 -58 -5 -2 -9 -8 -9 -13 0 -5 -12 -23 -28 -38
-15 -16 -33 -36 -40 -45 -19 -24 -72 -129 -76 -153 -3 -11 -8 -36 -13 -54 -11
-40 -9 -284 2 -349 4 -25 13 -60 21 -77 8 -21 9 -35 3 -39 -47 -29 -136 -198
-153 -289 -27 -155 -39 -201 -62 -245 -13 -25 -34 -70 -47 -100 -13 -30 -33
-75 -44 -100 -11 -25 -42 -94 -67 -155 -26 -60 -57 -130 -68 -155 -94 -206
-126 -349 -104 -467 3 -18 8 -48 11 -65 7 -42 34 -148 42 -168 3 -8 7 -17 8
-20 24 -68 92 -207 141 -286 24 -39 53 -96 64 -128 22 -65 101 -229 113 -234
4 -2 7 -8 7 -13 0 -13 81 -133 92 -137 4 -2 8 -10 8 -17 0 -7 3 -15 8 -17 4
-1 27 -30 52 -63 83 -113 155 -161 274 -185 61 -13 327 -16 386 -6 19 4 61 11
92 16 32 6 70 12 85 15 16 3 44 8 63 11 19 3 44 8 55 11 11 3 29 8 40 9 11 2
40 8 65 14 25 7 54 13 64 16 21 4 83 22 106 31 8 4 18 6 22 5 4 -1 24 5 46 12
l39 14 11 -36 c6 -21 14 -48 18 -62 9 -34 72 -169 95 -201 l18 -25 -62 -66
c-34 -36 -87 -94 -117 -129 -30 -34 -62 -70 -71 -79 -29 -31 -176 -215 -195
-245 -10 -16 -22 -34 -27 -40 -17 -22 -57 -86 -57 -91 0 -3 -8 -18 -18 -32
-22 -33 -69 -138 -76 -172 -3 -14 -10 -43 -15 -65 -19 -78 -22 -122 -22 -270
1 -143 3 -171 15 -240 3 -16 8 -48 11 -70 19 -125 66 -291 107 -385 46 -104
149 -288 183 -327 5 -6 21 -26 35 -44 38 -49 111 -121 150 -149 19 -13 37 -27
40 -30 3 -3 26 -18 53 -33 42 -25 52 -37 48 -59 0 -5 1849 -8 4109 -8 l4111 0
-47 45 c-25 25 -47 45 -49 45 -2 0 -19 15 -38 32 -18 18 -77 73 -129 123 -157
149 -228 213 -228 206 0 -3 -4 -1 -8 4 -16 23 -129 115 -141 115 -7 0 -9 5 -6
10 3 6 1 10 -4 10 -10 0 -27 12 -65 45 -6 6 -34 26 -61 45 -28 19 -59 42 -69
52 -11 10 -26 18 -33 18 -7 0 -13 4 -13 8 0 4 -29 25 -65 47 -36 22 -65 43
-65 48 0 4 -6 7 -12 7 -7 0 -22 8 -33 18 -11 9 -18 16 -16 15 2 -1 9 3 16 10
6 7 24 21 40 32 31 22 122 94 162 128 36 30 201 195 243 243 113 125 203 254
248 354 27 60 45 105 42 105 -1 0 3 12 9 26 5 15 12 45 16 67 3 22 9 57 12 78
9 52 9 530 0 619 -4 39 -9 88 -12 110 -2 22 -7 69 -10 105 -3 36 -8 81 -10
100 -5 50 -16 149 -20 190 -2 19 -6 60 -9 90 -3 30 -8 82 -12 115 -8 79 -12
153 -14 243 -3 108 24 142 196 243 56 33 110 68 121 79 12 10 24 16 27 13 3
-4 6 0 6 7 0 7 3 11 6 7 5 -5 26 9 63 43 9 8 33 27 53 42 91 69 167 150 188
203 12 29 23 61 25 71 2 11 4 19 5 19 13 0 19 246 7 300 -36 161 -50 209 -88
294 -12 25 -32 70 -45 99 -13 29 -24 55 -24 58 0 3 -11 21 -24 40 -23 34 -23
36 -9 102 39 180 51 256 58 348 1 17 5 35 8 40 2 5 5 92 5 194 1 203 -2 214
-74 340 -49 85 -179 228 -269 295 -21 17 -47 37 -56 45 -32 28 -44 36 -149
106 -262 175 -549 314 -931 452 -61 23 -263 83 -294 88 -11 2 -60 13 -110 24
-49 11 -110 23 -135 26 -44 6 -62 21 -65 54 -3 22 -35 150 -47 185 -46 135
-137 290 -201 344 -17 14 -38 33 -46 42 -25 24 -141 94 -225 134 -42 21 -76
40 -76 45 0 7 -163 66 -205 74 -38 8 -155 55 -199 81 -58 34 -159 132 -151
146 10 14 -34 59 -51 52 -8 -3 -30 9 -49 26 -20 17 -39 31 -43 32 -4 0 -41 2
-82 2 l-75 2 -113 89 c-61 48 -113 95 -114 105 -3 34 -6 56 -8 64 -2 7 -3 36
-1 64 1 9 4 13 7 10 11 -11 83 93 90 129 3 17 1 41 -5 52 -6 10 -7 22 -4 26 3
3 1 6 -5 6 -7 0 -10 10 -9 22 3 16 26 34 88 66 73 38 131 69 214 116 50 28
105 70 105 79 0 6 3 7 6 4 18 -17 271 232 343 337 8 12 18 23 21 26 14 12 90
131 121 190 19 36 37 67 42 68 4 2 7 11 7 21 0 9 6 25 13 36 47 69 123 337
144 510 16 127 7 696 -12 765 -4 14 -13 80 -20 145 -3 37 -16 123 -21 150 -2
11 -7 34 -9 50 -3 17 -12 66 -20 110 -13 73 -19 112 -29 170 -2 11 -7 43 -11
70 -4 28 -9 58 -11 68 -2 9 -6 27 -9 40 -36 168 -138 509 -186 622 -7 17 -13
32 -14 35 -1 3 -9 22 -18 44 -9 21 -17 40 -17 42 0 10 -70 152 -108 219 -52
91 -191 300 -222 332 -11 12 -20 27 -20 33 0 6 -4 8 -10 5 -5 -3 -10 1 -10 9
0 9 -9 21 -20 28 -11 7 -20 17 -20 22 0 12 -150 160 -246 242 -152 131 -406
298 -589 388 -94 46 -284 119 -343 131 -9 2 -51 12 -92 23 -66 17 -154 35
-230 47 -143 22 -198 27 -347 29 -95 2 -174 2 -175 0z m-633 -5527 c132 -66
219 -137 231 -189 14 -68 -61 -153 -201 -226 -127 -67 -175 -71 -122 -11 76
86 102 180 62 228 -22 26 -28 27 -104 27 -69 -1 -81 1 -81 16 0 9 4 18 9 20 8
3 65 89 64 98 -1 3 8 17 18 32 10 14 19 31 19 38 0 15 27 6 105 -33z"/>
</g>
</svg>
